<svg width="21px" height="16px" viewBox="0 0 21 16" xmlns="http://www.w3.org/2000/svg" xmlns:xlink="http://www.w3.org/1999/xlink">
    <g fill="none">
        <g transform="translate(-977.000000, -27.000000)" fill="#9B9B9B">
            <path d="M997.61628,35.40029 C997.631613,35.3466233 997.653387,35.2951033 997.66412,35.2386767 C997.71196,34.99549 997.71196,34.74525 997.66412,34.5020633 C997.653387,34.4468633 997.631613,34.3941167 997.61628,34.3401433 C997.59696,34.2766633 997.582547,34.2119567 997.5574,34.15093 C997.531027,34.08745 997.495147,34.0301033 997.46172,33.9699967 C997.436573,33.9221567 997.413573,33.87309 997.383827,33.8264767 C997.314213,33.72221 997.235093,33.6249967 997.147693,33.5375967 L991.161867,27.55177 C990.426173,26.8160767 989.234467,26.8160767 988.501227,27.55177 C987.765533,28.28593 987.765533,29.4779433 988.501227,30.2121033 L991.27564,32.9865167 L978.882013,32.9865167 C977.842107,32.9877433 977,33.8310767 977,34.8697567 C977,35.9096633 977.842107,36.75177 978.882013,36.75177 L991.27564,36.75177 L988.501227,39.5261833 C987.765533,40.26157 987.765533,41.4535833 988.501227,42.1865167 C988.867693,42.5545167 989.350387,42.7375967 989.83216,42.7375967 C990.313627,42.7375967 990.795093,42.55329 991.163093,42.1865167 L997.14892,36.20069 C997.237547,36.1120633 997.316667,36.0160767 997.385053,35.91181 C997.4148,35.8664233 997.4378,35.81613 997.462947,35.76829 C997.495147,35.7106367 997.531027,35.65329 997.5574,35.58981 C997.582547,35.5284767 997.59696,35.46285 997.61628,35.40029 Z"></path>
        </g>
    </g>
</svg>