<?xml version="1.0" encoding="UTF-8" standalone="no"?>
<svg width="30px" height="30px" viewBox="0 0 30 30" version="1.1" xmlns="http://www.w3.org/2000/svg" xmlns:xlink="http://www.w3.org/1999/xlink">
    <!-- Generator: Sketch 39.1 (31720) - http://www.bohemiancoding.com/sketch -->
    <title>Page 1</title>
    <desc>Created with Sketch.</desc>
    <defs></defs>
    <g id="Desktop" stroke="none" stroke-width="1" fill="none" fill-rule="evenodd">
        <g id="Desktop---Stelling-3---revisit-na-resultaten" transform="translate(-230.000000, -526.000000)" fill="#01B4DC">
            <g id="results-/-antwoorden" transform="translate(222.000000, 513.000000)">
                <path d="M29.3955541,24.7938889 C29.5616652,21.205003 26.670003,18.3155556 22.95,18.3155556 C19.229997,18.3155556 16.3383348,21.205003 16.5044459,24.7938889 C16.6377778,28.3827748 19.5272252,31.2722222 22.95,31.2722222 C26.3727748,31.2722222 29.2622222,28.3827748 29.3955541,24.7938889 L29.3955541,24.7938889 Z M32.650003,37.5188859 L32.650003,36.9545511 C32.650003,34.3973259 30.5911111,32.3362193 28.0321141,32.3362193 L17.9011081,32.3362193 C15.34344,32.3362193 13.2827763,34.3955541 13.2827763,36.9545511 L13.2827763,37.5188859 C15.7416637,40.0105526 19.1622237,41.5711111 22.95,41.5711111 C26.7377763,41.5711111 30.1583363,40.0105526 32.650003,37.5188859 L32.650003,37.5188859 Z M22.95,41.5711111 C15.4422207,41.5711111 9.32888889,35.4577793 9.32888889,27.95 C9.32888889,20.4422207 15.4422207,14.3288889 22.95,14.3288889 C30.4577793,14.3288889 36.5711111,20.4422207 36.5711111,27.95 C36.5711111,35.4577793 30.4577793,41.5711111 22.95,41.5711111 L22.95,41.5711111 Z M22.95,42.9 C31.2227763,42.9 37.9,36.2227763 37.9,27.95 C37.9,19.6772237 31.2227763,13 22.95,13 C14.6772237,13 8,19.6772237 8,27.95 C8,36.2227763 14.6772237,42.9 22.95,42.9 L22.95,42.9 Z" id="Page-1"></path>
            </g>
        </g>
    </g>
</svg>