<svg width="34px" height="24px" viewBox="0 0 34 24" xmlns="http://www.w3.org/2000/svg" xmlns:xlink="http://www.w3.org/1999/xlink">
    <g>
        <g transform="translate(0.000000, -2.000000)" fill="#01B4DC">
            <path d="M25.16,18.4284933 C22.94,20.20548 24.4930133,22.535 24.4930133,22.535 C24.4930133,22.535 22.0880133,21.8315067 21.09,21.1669867 C21.09,21.1669867 22.2,20.13 21.8665067,17.1334933 C21.4234933,12.9515067 15.2430133,10.0669867 10.2115067,10.14 C8.02801333,10.14 6.58501333,10.4369867 6.58501333,10.4369867 C6.58501333,10.4369867 6.21501333,2.33349333 19.0530267,2 C26.8980133,2 33.3,5.92150667 33.3,10.7315067 C33.3,14.395 30.34,17.1334933 25.16,18.4284933 L25.16,18.4284933 Z M19.3884933,17.98548 C19.3884933,21.2034933 15.2819867,23.8319733 10.1019867,23.9419867 C9.62,24.64548 8.43698667,25.9769867 5.92,25.9769867 C7.03,25.34848 6.95698667,24.57 6.03198667,23.53548 C2.51698667,22.6469867 0,20.5 0,17.98548 C0,14.6919867 4.32801333,11.9919733 9.69301333,11.9919733 C15.0580133,11.9919733 19.3884933,14.6919867 19.3884933,17.98548 L19.3884933,17.98548 Z" id="icon-balloons"></path>
        </g>
    </g>
</svg>