<?xml version="1.0" encoding="UTF-8" standalone="no"?>
<svg width="132px" height="87px" viewBox="0 0 132 87" version="1.1" xmlns="http://www.w3.org/2000/svg" xmlns:xlink="http://www.w3.org/1999/xlink">
    <g id="Desktop" stroke="none" stroke-width="1" fill="none" fill-rule="evenodd">
        <g id="Desktop---Popup" transform="translate(-654.000000, -290.000000)" fill="#FFFFFF">
            <g id="Group-3" transform="translate(390.000000, 237.000000)">
                <g id="Page-1" transform="translate(264.000000, 53.000000)">
                    <path d="M82.5,32.85184 C82.5,32.48048 82.5968,31.80112 82.85728,31.16752 C83.20048,30.3368 83.66864,29.96544 84.56272,29.96544 C85.4568,29.96544 85.9232,30.3368 86.26816,31.16752 C86.52864,31.80112 86.62544,32.48048 86.62544,32.85184 L86.62544,34.50272 C86.62544,35.6432 87.54592,36.56544 88.68816,36.56544 C89.82864,36.56544 90.74912,35.6432 90.74912,34.50272 L90.74912,32.85184 C90.74912,31.98592 90.58544,30.81024 90.0768,29.58704 C89.1352,27.32544 87.2784,25.84 84.56272,25.84 C81.84704,25.84 79.99024,27.32544 79.04864,29.58704 C78.54,30.81024 78.37456,31.98592 78.37456,32.85184 L78.37456,34.50272 C78.37456,35.6432 79.2968,36.56544 80.43728,36.56544 C81.57952,36.56544 82.5,35.6432 82.5,34.50272 L82.5,32.85184 Z M45.37456,32.85184 C45.37456,32.48048 45.47136,31.80112 45.73184,31.16752 C46.0768,30.3368 46.5432,29.96544 47.43728,29.96544 C48.33136,29.96544 48.79952,30.3368 49.14272,31.16752 C49.4032,31.80112 49.5,32.48048 49.5,32.85184 L49.5,34.50272 C49.5,35.6432 50.42048,36.56544 51.56272,36.56544 C52.7032,36.56544 53.62544,35.6432 53.62544,34.50272 L53.62544,32.85184 C53.62544,31.98592 53.46,30.81024 52.95136,29.58704 C52.00976,27.32544 50.15296,25.84 47.43728,25.84 C44.7216,25.84 42.8648,27.32544 41.9232,29.58704 C41.41456,30.81024 41.25088,31.98592 41.25088,32.85184 L41.25088,34.50272 C41.25088,35.6432 42.17136,36.56544 43.31184,36.56544 C44.45408,36.56544 45.37456,35.6432 45.37456,34.50272 L45.37456,32.85184 Z M59.50384,57.03952 C59.70272,56.72272 60.19728,56.1384 60.99456,55.53296 C62.34272,54.5016 63.9848,53.89088 66,53.89088 C68.0152,53.89088 69.65728,54.5016 71.00544,55.53296 C71.80272,56.1384 72.29728,56.72272 72.49616,57.03952 C73.1016,58.00752 74.37408,58.3032 75.3368,57.7048 C76.3048,57.10112 76.60048,55.82864 76.00384,54.86592 C75.5568,54.15136 74.7384,53.18864 73.50816,52.24704 C71.47184,50.7 68.96384,49.76544 66,49.76544 C63.03616,49.76544 60.52816,50.7 58.49184,52.24704 C57.2616,53.18864 56.4432,54.15136 55.99616,54.86592 C55.39952,55.82864 55.6952,57.10112 56.6632,57.7048 C57.62592,58.3032 58.8984,58.00752 59.50384,57.03952 L59.50384,57.03952 Z" id="Fill-1"></path>
                    <path d="M8.25088,74.51456 L8.25088,6.42544 C8.25088,3.0216 11.00704,0.26544 14.47248,0.26544 L117.52752,0.26544 C120.9648,0.26544 123.74912,3.04976 123.74912,6.42544 L123.74912,74.51456 L129.9584,74.51456 C131.0848,74.51456 132,75.4016 132,76.55616 L132,80.70272 C132,84.11888 129.24384,86.89088 125.7784,86.89088 L6.2216,86.89088 C2.78432,86.89088 0,84.14704 0,80.70272 L0,76.55616 C0,75.42976 0.92752,74.51456 2.0416,74.51456 L8.25088,74.51456 Z M119.62544,74.51456 L119.62544,6.48704 C119.62544,5.32544 118.68384,4.38912 117.52048,4.38912 L14.47952,4.38912 C13.30384,4.38912 12.37456,5.33248 12.37456,6.48704 L12.37456,74.51456 L119.62544,74.51456 Z M113.45136,8.51456 C114.5848,8.51456 115.5,9.4016 115.5,10.5368 L115.5,68.36864 C115.5,69.48272 114.57248,70.38912 113.45136,70.38912 L18.54864,70.38912 C17.4152,70.38912 16.5,69.50384 16.5,68.36864 L16.5,10.5368 C16.5,9.42272 17.42752,8.51456 18.54864,8.51456 L113.45136,8.51456 Z M111.37456,66.26544 L20.62544,66.26544 L20.62544,12.64 L111.37456,12.64 L111.37456,66.26544 Z M4.12544,80.70272 L4.12544,78.64 L127.87456,78.64 L127.87456,80.70272 C127.87456,81.8432 126.94704,82.76544 125.77136,82.76544 L6.22864,82.76544 C5.06704,82.76544 4.12544,81.80976 4.12544,80.70272 L4.12544,80.70272 Z" id="Fill-2"></path>
                </g>
            </g>
        </g>
    </g>
</svg>