<svg width="19px" height="19px" viewBox="0 0 19 19" version="1.1" xmlns="http://www.w3.org/2000/svg" xmlns:xlink="http://www.w3.org/1999/xlink">
    <g fill="none">
        <g transform="translate(-1173.000000, -666.000000)" fill="#000000">
            <path d="M1185.18389,675.51104 L1191.832,668.862933 C1192.08779,668.60744 1192.08779,668.195013 1191.832,667.9404 L1190.08344,666.19184 C1189.82912,665.93752 1189.41552,665.93752 1189.1612,666.19184 L1182.51192,672.839067 L1175.86381,666.19096 C1175.60949,665.936347 1175.19589,665.936347 1174.9404,666.19096 L1173.19184,667.93952 C1172.93605,668.19384 1172.93605,668.60744 1173.19184,668.86176 L1179.83995,675.509867 L1173.19184,682.159147 C1172.93605,682.41464 1172.93605,682.827067 1173.19184,683.08168 L1174.9404,684.83024 C1175.19589,685.085733 1175.60832,685.085733 1175.86381,684.83024 L1182.51192,678.183013 L1189.16003,684.83112 C1189.41552,685.086907 1189.82795,685.086907 1190.08256,684.83112 L1191.83112,683.08256 C1192.08661,682.82824 1192.08661,682.41464 1191.83112,682.16032 L1185.18389,675.51104 Z"></path>
        </g>
    </g>
</svg>