<?xml version="1.0" encoding="utf-8"?>
<!-- Generator: Adobe Illustrator 15.0.0, SVG Export Plug-In . SVG Version: 6.00 Build 0)  -->
<!DOCTYPE svg PUBLIC "-//W3C//DTD SVG 1.1//EN" "http://www.w3.org/Graphics/SVG/1.1/DTD/svg11.dtd">
<svg version="1.1" xmlns="http://www.w3.org/2000/svg" xmlns:xlink="http://www.w3.org/1999/xlink" x="0px" y="0px" width="146px"
	 height="112px" viewBox="0 0 146 112" enable-background="new 0 0 146 112" xml:space="preserve">
<g id="Layer_1">
</g>
<g id="Laag_1">
	<g id="Layer_2">
		<path fill="none" stroke="#FFFFFF" stroke-width="3" stroke-linecap="round" stroke-linejoin="round" stroke-miterlimit="10" d="
			M104.354,0H61.798c-1.545,0-2.809,1.264-2.809,2.809v105.337c0,1.546,1.264,2.81,2.809,2.81h81.18c1.545,0,2.81-1.264,2.81-2.81
			V41.573L104.354,0z"/>
		<path fill="none" stroke="#FFFFFF" stroke-width="3.6734" stroke-miterlimit="10" d="M104.354,0v24.298
			c0,9.41,7.725,17.135,17.135,17.135h24.298"/>
		<path fill="#FFFFFF" d="M111.518,58.708c-0.281,0.421-0.983,1.264-2.107,2.106c-1.826,1.404-4.213,2.248-7.022,2.248
			c-2.809,0-5.196-0.844-7.022-2.248c-1.123-0.843-1.826-1.686-2.106-2.106c-0.843-1.404-2.669-1.826-3.933-0.983
			c-1.404,0.843-1.826,2.668-0.983,3.933c0.562,0.983,1.826,2.388,3.512,3.651c2.809,2.107,6.319,3.512,10.533,3.512
			s7.725-1.264,10.534-3.512c1.686-1.264,2.809-2.668,3.511-3.651c0.843-1.404,0.421-3.09-0.983-3.933
			C114.045,57.022,112.359,57.304,111.518,58.708L111.518,58.708z"/>
		<circle fill="#FFFFFF" cx="87.922" cy="34.691" r="6.742"/>
		
			<line fill="none" stroke="#FFFFFF" stroke-width="3" stroke-linecap="round" stroke-linejoin="round" stroke-miterlimit="10" x1="0" y1="17.135" x2="42.697" y2="17.135"/>
		
			<line fill="none" stroke="#FFFFFF" stroke-width="3" stroke-linecap="round" stroke-linejoin="round" stroke-miterlimit="10" x1="2.81" y1="34.972" x2="42.697" y2="34.972"/>
		
			<line fill="none" stroke="#FFFFFF" stroke-width="3" stroke-linecap="round" stroke-linejoin="round" stroke-miterlimit="10" x1="5.759" y1="52.809" x2="42.697" y2="52.809"/>
		
			<line fill="none" stroke="#FFFFFF" stroke-width="3" stroke-linecap="round" stroke-linejoin="round" stroke-miterlimit="10" x1="8.567" y1="70.506" x2="42.697" y2="70.506"/>
		
			<line fill="none" stroke="#FFFFFF" stroke-width="3" stroke-linecap="round" stroke-linejoin="round" stroke-miterlimit="10" x1="14.045" y1="88.343" x2="42.697" y2="88.343"/>
	</g>
</g>
</svg>
